<svg xmlns="http://www.w3.org/2000/svg" fill="none" viewBox="0 0 24 24" strokeWidth="1.5" stroke="currentColor">
  <path strokeLinecap="round" strokeLinejoin="round" d="M20.25 8.511c.884.284 1.5 1.128 1.5 2.097v4.286c0 1.136-.847 2.1-1.98 2.193-.34.027-.68.052-1.02.072v3.091l-3.688-3.091a4.136 4.136 0 01-1.411-.352 5.172 5.172 0 01-1.412-.352M9.75 8.511c-.884.284-1.5 1.128-1.5 2.097v4.286c0 1.136.847 2.1 1.98 2.193.34.027-.68.052 1.02.072v3.091l-3.688-3.091a4.136 4.136 0 01-1.411-.352 5.172 5.172 0 01-1.412-.352M6.311 13.048c.093.053.192.098.297.132a2.86 2.86 0 002.805-.028M13.048 6.311c-.093-.053-.192-.098-.297-.132a2.86 2.86 0 00-2.805.028m.001 1.615a2.86 2.86 0 00-2.805.028M11.25 9.75v.003M12.75 9.75v.003" />
</svg> 