<svg xmlns="http://www.w3.org/2000/svg" fill="none" viewBox="0 0 24 24" strokeWidth="1.5" stroke="currentColor">
  <path strokeLinecap="round" strokeLinejoin="round" d="M10.343 3.94c.09-.542.56-.94 1.11-.94h1.093c.55 0 1.02.398 1.11.94l.149.894c.07.424.384.764.78.931l.908.38c.566.237.963.755.963 1.368v1.093c0 .613-.397 1.131-.963 1.368l-.908.38c-.396.167-.71.507-.78.931l-.149.894c-.09.542-.56.94-1.11.94h-1.093c-.55 0-1.02-.398-1.11-.94l-.149-.894c-.07-.424-.384-.764-.78-.931l-.908-.38c-.566-.237-.963-.755-.963-1.368V7.484c0-.613.397-1.131.963-1.368l.908.38c.396.167.71.507.78.931l.149-.894z" />
  <path strokeLinecap="round" strokeLinejoin="round" d="M15.75 10.5l4.72-4.72a.75.75 0 000-1.06L18.47.22a.75.75 0 00-1.06 0l-4.72 4.72m5.78 5.78l-4.72 4.72a.75.75 0 01-1.06 0l-2.06-2.06a.75.75 0 010-1.06l4.72-4.72m5.78 5.78l-4.72 4.72" />
</svg> 